<?xml version="1.0" encoding="UTF-8"?><svg id="a" xmlns="http://www.w3.org/2000/svg" viewBox="0 0 167.4866 167.4865"><defs><style>.b{fill:#1ed760;}</style></defs><path class="b" d="m83.7433,0C37.4939,0,0,37.4926,0,83.742s37.4939,83.7445,83.7433,83.7445,83.7433-37.4909,83.7433-83.7445S129.9944,0,83.7433,0Zm38.4054,120.7875c-1.5045,2.4671-4.7181,3.2404-7.1766,1.7367-19.6653-12.0194-44.4172-14.7336-73.5672-8.075-2.8093.644-5.6087-1.1166-6.2494-3.9247-.6435-2.8088,1.1101-5.6086,3.9255-6.2493,31.8996-7.2926,59.2632-4.1544,81.3363,9.334,2.461,1.5029,3.2358,4.7177,1.7314,7.1782Zm10.2472-22.8035c-1.8936,3.0732-5.9117,4.0366-8.9808,2.1501-22.5047-13.8335-56.8219-17.8409-83.4468-9.759-3.4529,1.0433-7.0996-.9034-8.1483-4.3496-1.0405-3.4528.9071-7.0929,4.3537-8.1429,30.4153-9.2295,68.2257-4.7593,94.0741,11.1255,3.0691,1.8899,4.035,5.9101,2.1481,8.9759Zm.884-23.744c-26.9941-16.031-71.5201-17.5049-97.2893-9.6836-4.1383,1.2553-8.5143-1.0809-9.768-5.2188-1.2541-4.1404,1.0796-8.5135,5.2208-9.7713,29.5812-8.9795,78.7555-7.2449,109.8317,11.2021,3.7225,2.2094,4.9433,7.0164,2.7368,10.7327-2.2082,3.7217-7.0188,4.9487-10.7319,2.7389Z"/></svg>