<?xml version="1.0" encoding="UTF-8"?><svg id="a" xmlns="http://www.w3.org/2000/svg" viewBox="0 0 32 36.2442"><defs><style>.b{fill:#fe2c55;}.c{fill:#25f4ee;}</style></defs><path class="c" d="M12.4552,14.2718v-1.411c-.4834-.0646-.9748-.1049-1.4824-.1049-6.0504-.0079-10.9729,4.9186-10.9729,10.9821,0,3.7171,1.853,7.007,4.6888,8.9986-1.8288-1.9593-2.9487-4.5961-2.9487-7.4827,0-5.9749,4.7855-10.845,10.7151-10.9821Z"/><path class="c" d="M12.7211,30.2693c2.6989,0,4.9064-2.1528,5.0031-4.8298l.0081-23.9236h4.3665c-.0887-.4919-.137-.9998-.137-1.5159h-5.9618l-.0081,23.9236c-.0966,2.677-2.3042,4.8298-5.003,4.8298-.8379,0-1.6274-.2096-2.3283-.5805,.9023,1.2659,2.3847,2.0964,4.0604,2.0964Z"/><path class="c" d="M30.2601,9.6355v-1.3304c-1.6676,0-3.2145-.4919-4.5197-1.3466,1.1601,1.3305,2.7311,2.2981,4.5197,2.677Z"/><path class="b" d="M25.7405,6.9585c-1.273-1.4594-2.0383-3.3623-2.0383-5.4426h-1.5951c.4108,2.2738,1.7644,4.2252,3.6334,5.4426Z"/><path class="b" d="M10.9809,18.7147c-2.7634,0-5.0111,2.2497-5.0111,5.0153,0,1.9272,1.0957,3.6043,2.6908,4.4429-.5962-.8225-.9506-1.8303-.9506-2.927,0-2.7657,2.2477-5.0153,5.0111-5.0153,.5156,0,1.015,.0887,1.4823,.2338v-6.0957c-.4834-.0646-.9748-.1049-1.4823-.1049-.0887,0-.1692,.0081-.2579,.0081v4.6767c-.4753-.1452-.9668-.2338-1.4824-.2338Z"/><path class="b" d="M30.2599,9.6355v4.6363c-3.0937,0-5.9618-.9917-8.2982-2.6689v12.1352c0,6.0555-4.9224,10.9902-10.9809,10.9902-2.3364,0-4.5116-.7419-6.2921-1.9916,2.006,2.1528,4.8661,3.5075,8.0323,3.5075,6.0503,0,10.9809-4.9267,10.9809-10.9902V13.1188c2.3363,1.6772,5.2044,2.6689,8.2981,2.6689v-5.9667c-.6043,0-1.1843-.0646-1.7401-.1855Z"/><path d="M21.9616,23.7381V11.6029c2.3365,1.6772,5.2045,2.6689,8.2982,2.6689v-4.6363c-1.7886-.3789-3.3596-1.3465-4.5197-2.677-1.8692-1.2175-3.2145-3.1688-3.6416-5.4426h-4.3665l-.0081,23.9235c-.0966,2.677-2.3042,4.8299-5.003,4.8299-1.6758,0-3.1501-.8305-4.0685-2.0884-1.5952-.8467-2.6908-2.5157-2.6908-4.4429,0-2.7657,2.2477-5.0153,5.0111-5.0153,.5156,0,1.0151,.0887,1.4824,.2338v-4.6767c-5.9295,.129-10.7151,4.9992-10.7151,10.9741,0,2.8866,1.1198,5.5153,2.9486,7.4827,1.7805,1.2498,3.9557,1.9916,6.2921,1.9916,6.0504,0,10.9809-4.9347,10.9809-10.9902Z"/></svg>