<svg xmlns="http://www.w3.org/2000/svg" viewBox="0 0 400 400"><defs><style>.a{fill:red;}.b{fill:#fff;}</style></defs><title>youtube</title><path class="a" d="M391.64,103.1a50.27,50.27,0,0,0-35.36-35.6C325.08,59.09,200,59.09,200,59.09s-125.08,0-156.28,8.41A50.27,50.27,0,0,0,8.36,103.1C0,134.49,0,200,0,200s0,65.51,8.36,96.9a50.27,50.27,0,0,0,35.36,35.6c31.2,8.41,156.28,8.41,156.28,8.41s125.08,0,156.28-8.41a50.27,50.27,0,0,0,35.36-35.6C400,265.51,400,200,400,200S400,134.49,391.64,103.1Z"/><polygon class="b" points="159.09 259.48 263.64 200 159.09 140.53 159.09 259.48"/></svg>