<?xml version="1.0" encoding="UTF-8"?><svg id="a" xmlns="http://www.w3.org/2000/svg" viewBox="0 0 500 200"><path d="M34.542,155.6191c-3.4819,0-6.002-.5117-7.5601-1.5293-1.561-1.0186-2.5508-2.3682-2.9697-4.0498-.4219-1.6797-.6304-3.4795-.6304-5.4004V40.7793c0-2.0391,.1802-3.8701,.54-5.4893,.3604-1.6201,1.3193-2.9395,2.8804-3.9609,1.5581-1.0176,4.0781-1.5293,7.5596-1.5293,3.3584,0,5.7886,.5117,7.29,1.5293,1.499,1.0215,2.4585,2.3408,2.8804,3.9609,.4189,1.6191,.6299,3.4502,.6299,5.4893v95.4004h54.7197c1.8003,0,3.4482,.1514,4.9502,.4502,1.499,.3008,2.6689,1.1416,3.5098,2.5195,.8384,1.3809,1.2603,3.5723,1.2603,6.5703,0,3.001-.4219,5.1914-1.2603,6.5703-.8408,1.3809-1.98,2.2773-3.4199,2.6992-1.4399,.4189-3.0601,.6299-4.8599,.6299H34.542Z"/><path d="M182.3213,156.8799c-5.6421,0-11.2222-1.1426-16.7402-3.4199-5.521-2.2783-10.4707-5.4287-14.8496-9.4502-4.3823-4.0195-7.8301-8.8203-10.3501-14.4004s-3.7803-11.6689-3.7803-18.2695c0-6.3594,1.1699-12.2998,3.5103-17.8203,2.3398-5.5186,5.6079-10.3779,9.8101-14.5801,4.1987-4.1992,9.0278-7.4697,14.4897-9.8096,5.459-2.3398,11.3091-3.5107,17.5498-3.5107,8.5195,0,16.2002,2.0117,23.04,6.0303,6.8398,4.0225,12.2988,9.4502,16.3799,16.29,4.0781,6.8398,6.1201,14.5801,6.1201,23.2197,0,6.8408-1.2598,13.0811-3.7793,18.7207-2.5205,5.6416-5.9404,10.4707-10.2607,14.4893-4.3193,4.0225-9.1797,7.1104-14.5801,9.2705-5.3994,2.1602-10.9209,3.2402-16.5596,3.2402Zm-.3604-21.4199c3.96,0,7.7686-.9902,11.4307-2.9707,3.6582-1.9795,6.6592-4.8291,9-8.5498,2.3398-3.7178,3.5098-8.0996,3.5098-13.1396,0-4.6807-1.0215-8.8203-3.0605-12.4199-2.041-3.6006-4.8906-6.3906-8.5498-8.3701-3.6621-1.9805-7.8301-2.9697-12.5098-2.9697-4.3203,0-8.2803,1.0518-11.8799,3.1494-3.6001,2.1006-6.4521,4.9502-8.5503,8.5498-2.1006,3.6006-3.1499,7.6816-3.1499,12.2402,0,5.04,1.1392,9.3906,3.4199,13.0498,2.2783,3.6621,5.248,6.4805,8.9102,8.46,3.6592,1.9805,7.4697,2.9707,11.4297,2.9707Z"/><path d="M296.4395,153.2793c-5.6416,0-10.8896-1.0801-15.75-3.2393-4.8604-2.1602-9.1523-5.2207-12.8701-9.1807-3.7207-3.96-6.6006-8.5498-8.6396-13.7695-2.042-5.2207-3.0605-10.8906-3.0605-17.0107,0-5.999,1.0186-11.5781,3.0605-16.7393,2.0391-5.1582,4.9189-9.7207,8.6396-13.6807,3.7178-3.96,8.0098-7.0479,12.8701-9.2695,4.8604-2.2188,10.0488-3.3301,15.5703-3.3301,5.2783,0,9.9277,1.0518,13.9492,3.1504,4.0195,2.1006,7.3809,5.0703,10.0801,8.9092,2.7002,3.8428,4.708,8.4014,6.0303,13.6807,1.3193,5.2812,1.9805,11.1006,1.9805,17.46,0,8.7607-1.1709,16.3799-3.5107,22.8594-2.3398,6.4805-5.8809,11.4609-10.6201,14.9404-4.7412,3.4814-10.6504,5.2197-17.7295,5.2197Zm1.7998,38.5205c-4.2021,0-8.3105-.5127-12.3301-1.5303-4.0215-1.0215-7.6221-2.3711-10.7998-4.0498-3.1807-1.6826-5.7012-3.5107-7.5596-5.4902-1.8623-1.9805-2.79-3.8115-2.79-5.4902,0-1.6816,.2695-3.1211,.8096-4.3193,.54-1.2012,1.3496-2.4023,2.4297-3.6006,1.4404-1.4395,2.6387-2.5195,3.6006-3.2402,.959-.7197,2.2188-1.0791,3.7793-1.0791,1.3193,0,2.6104,.4775,3.8701,1.4395,1.2607,.959,2.7285,2.0391,4.4102,3.2402,1.6797,1.1982,3.7188,2.2783,6.1201,3.2402,2.3994,.959,5.4004,1.4395,9,1.4395,3.2402,0,6.1484-.54,8.7305-1.6201,2.5791-1.0801,4.8291-2.6719,6.75-4.7695,1.918-2.1016,3.3887-4.5898,4.4092-7.4697,1.0186-2.8809,1.5303-6.1201,1.5303-9.7207l-.1797-74.5195c.2393-2.7588,1.1982-4.708,2.8799-5.8506,1.6787-1.1387,4.3203-1.71,7.9199-1.71,3.2402,0,5.5801,.4502,7.0205,1.3506,1.4395,.8994,2.3398,2.1602,2.6992,3.7793,.3604,1.6201,.54,3.4512,.54,5.4902v72.7207c0,6.5977-1.1416,12.4785-3.4199,17.6396-2.2803,5.1582-5.4307,9.54-9.4502,13.1396-4.0215,3.5996-8.5801,6.3281-13.6797,8.1904-5.1016,1.8584-10.5303,2.79-16.29,2.79Zm.1797-58.8604c3.96,0,7.5293-.9902,10.71-2.9697,3.1787-1.9805,5.7295-4.708,7.6504-8.1904,1.918-3.4785,2.8799-7.3799,2.8799-11.7002,0-4.4375-.9619-8.3389-2.8799-11.6992-1.9209-3.3584-4.5-5.999-7.7402-7.9199-3.2393-1.9189-6.9014-2.8809-10.9795-2.8809-3.96,0-7.5322,.9619-10.71,2.8809-3.1816,1.9209-5.6699,4.5898-7.4707,8.0098-1.7998,3.4199-2.6992,7.29-2.6992,11.6094,0,4.4414,.9277,8.3701,2.79,11.79,1.8584,3.4209,4.3789,6.1201,7.5596,8.1006,3.1777,1.9795,6.8096,2.9697,10.8896,2.9697Z"/><path d="M419.3799,156.8799c-5.6416,0-11.2217-1.1426-16.7402-3.4199-5.5205-2.2783-10.4707-5.4287-14.8496-9.4502-4.3818-4.0195-7.8301-8.8203-10.3506-14.4004-2.5195-5.5801-3.7793-11.6689-3.7793-18.2695,0-6.3594,1.1699-12.2998,3.5098-17.8203,2.3398-5.5186,5.6084-10.3779,9.8096-14.5801,4.1992-4.1992,9.0283-7.4697,14.4902-9.8096,5.459-2.3398,11.3096-3.5107,17.5498-3.5107,8.5195,0,16.2002,2.0117,23.04,6.0303,6.8398,4.0225,12.2988,9.4502,16.3799,16.29,4.0781,6.8398,6.1201,14.5801,6.1201,23.2197,0,6.8408-1.2598,13.0811-3.7793,18.7207-2.5205,5.6416-5.9404,10.4707-10.2607,14.4893-4.3193,4.0225-9.1797,7.1104-14.5801,9.2705-5.3994,2.1602-10.9209,3.2402-16.5596,3.2402Zm-.3604-21.4199c3.96,0,7.7686-.9902,11.4307-2.9707,3.6582-1.9795,6.6592-4.8291,9-8.5498,2.3398-3.7178,3.5098-8.0996,3.5098-13.1396,0-4.6807-1.0215-8.8203-3.0605-12.4199-2.041-3.6006-4.8906-6.3906-8.5498-8.3701-3.6621-1.9805-7.8301-2.9697-12.5098-2.9697-4.3203,0-8.2803,1.0518-11.8799,3.1494-3.6006,2.1006-6.4521,4.9502-8.5498,8.5498-2.1016,3.6006-3.1504,7.6816-3.1504,12.2402,0,5.04,1.1387,9.3906,3.4199,13.0498,2.2783,3.6621,5.248,6.4805,8.9102,8.46,3.6592,1.9805,7.4697,2.9707,11.4297,2.9707Z"/></svg>